<?xml version="1.0" encoding="UTF-8"?>
<svg width="36px" height="28px" viewBox="0 0 36 28" version="1.1" xmlns="http://www.w3.org/2000/svg" xmlns:xlink="http://www.w3.org/1999/xlink">
    <!-- Generator: Sketch 49.2 (51160) - http://www.bohemiancoding.com/sketch -->
    <title>trips</title>
    <desc>Created with Sketch.</desc>
    <defs></defs>
    <g id="Screens" stroke="none" stroke-width="1" fill="none" fill-rule="evenodd">
        <g id="Explore" transform="translate(-166.000000, -632.000000)" fill="#BBBCC0">
            <g id="Menu" transform="translate(0.000000, 619.000000)">
                <g id="trips" transform="translate(166.000000, 13.000000)">
                    <path d="M0,12.15 C0,16.11 7.5,27 7.5,27 C7.5,27 15,16.11 15,12.15 C15,8.20375 11.6454545,5 7.5,5 C3.35454545,5 0,8.20375 0,12.15 L0,12.15 Z M7.5,7.75 C9.98181818,7.75 12.2454545,9.9225 12.2454545,12.3425 C12.2454545,14.77625 9.96818182,17.3475 7.47272727,17.3475 C4.99090909,17.3475 2.72727273,14.7625 2.72727273,12.32875 C2.72727273,9.895 5.01818182,7.75 7.5,7.75 Z" id="Shape"></path>
                    <path d="M25,5.2 C25,8.08 30.5,16 30.5,16 C30.5,16 36,8.08 36,5.2 C36,2.33 33.54,0 30.5,0 C27.46,0 25,2.33 25,5.2 L25,5.2 Z M30.5100287,2 C32.3352436,2 34,3.58452722 34,5.3495702 C34,7.12464183 32.3252149,9 30.4899713,9 C28.6647564,9 27,7.11461318 27,5.33954155 C27,3.56446991 28.6848138,2 30.5100287,2 Z" id="Shape"></path>
                    <path d="M25.3352042,18.2167576 C24.5046472,19.5313318 28.4835548,19.5228649 26.9818857,23.6112605 C25.980773,26.3368575 19.7706653,27.4664373 8.3515625,27 L11.857666,21.5184073 C18.7969394,22.2701185 22.6465179,22.2701185 23.4064014,21.5184073 C24.5462266,20.3908406 21.0914629,18.2265807 23.4064014,16.9021834 C24.9496937,16.0192519 27.1475599,15.7843882 30,16.1975923 C27.4438408,16.6673197 25.8889089,17.3403748 25.3352042,18.2167576 Z" id="Path-2"></path>
                </g>
            </g>
        </g>
    </g>
</svg>